<svg xmlns="http://www.w3.org/2000/svg" viewBox="0 0 904 748" width="904" height="748" role="img" aria-label="Haridwar SIIDCUL sector boundary map" xmlns:c2pa="http://c2pa.org/manifest"><metadata><c2pa:manifest>AAAWgmp1bWIAAAAeanVtZGMycGEAEQAQgAAAqgA4m3EDYzJwYQAAABZcanVtYgAAAEdqdW1kYzJtYQARABCAAACqADibcQN1cm46YzJwYTo3NDMwZWE0MC01MDJhLTQ0MjYtODQyYi0xYjNjZDFkMDQyYjAAAAADl2p1bWIAAAApanVtZGMyYXMAEQAQgAAAqgA4m3EDYzJwYS5hc3NlcnRpb25zAAAAALxqdW1iAAAARGp1bWRjYm9yABEAEIAAAKoAOJtxE2MycGEuaW5ncmVkaWVudC52MwAAAAAYYzJzaIRkfwvUhSOyk6jhdg5uhIAAAABwY2JvcqNpZGM6Zm9ybWF0bWltYWdlL3N2Zyt4bWxqaW5zdGFuY2VJRHgseG1wOmlpZDozM2JlZDhmMi04NGRhLTQ2ZDYtOGIyNy0yZTY3NmE5Zjg1MjBscmVsYXRpb25zaGlwaHBhcmVudE9mAAAB4mp1bWIAAABBanVtZGNib3IAEQAQgAAAqgA4m3ETYzJwYS5hY3Rpb25zLnYyAAAAABhjMnNoZtHRlxG4I4vDY3TFy1yEbAAAAZljYm9yomdhY3Rpb25zgqJmYWN0aW9ua2MycGEub3BlbmVkanBhcmFtZXRlcnOha2luZ3JlZGllbnRzgaJjdXJseC1zZWxmI2p1bWJmPWMycGEuYXNzZXJ0aW9ucy9jMnBhLmluZ3JlZGllbnQudjNkaGFzaFggmCQe+K1bT5ZWVdTu4l2fVi83+EQQNHDT2pXi4aoFhJukZmFjdGlvbngdY29tLmFudGhyb3BpYy5jbGF1ZGUucHJvdmlkZWRqcGFyYW1ldGVyc6F4H2NvbS5hbnRocm9waWMub3JpZ2luLWNvbmZpZGVuY2VndW5rbm93bmtkZXNjcmlwdGlvbnhmQ2xhdWRlIHByb3ZpZGVkIHRoaXMgZmlsZSBhdCB0aGUgcmVxdWVzdCBvZiBhIHVzZXIgYW5kIG1heSBoYXZlIGNyZWF0ZWQgb3IgbW9kaWZpZWQgdGhlIGZpbGUgY29udGVudHMubXNvZnR3YXJlQWdlbnShZG5hbWVmQ2xhdWRlcmFsbEFjdGlvbnNJbmNsdWRlZPUAAADIanVtYgAAAEBqdW1kY2JvcgARABCAAACqADibcRNjMnBhLmhhc2guZGF0YQAAAAAYYzJzaCmZK/jrvKN00SSIvJFydzAAAACAY2JvcqVjYWxnZnNoYTI1NmNwYWRNAAAAAAAAAAAAAAAAAGRoYXNoWCC0ewLqsiX67FtDFdyGj4lDwwHH7OchW4xEQlCWa0JJNmRuYW1lbmp1bWJmIG1hbmlmZXN0amV4Y2x1c2lvbnOBomVzdGFydBjTZmxlbmd0aBkeBAAAAj5qdW1iAAAAJ2p1bWRjMmNsABEAEIAAAKoAOJtxA2MycGEuY2xhaW0udjIAAAACD2Nib3KlY2FsZ2ZzaGEyNTZpc2lnbmF0dXJleE1zZWxmI2p1bWJmPS9jMnBhL3VybjpjMnBhOjc0MzBlYTQwLTUwMmEtNDQyNi04NDJiLTFiM2NkMWQwNDJiMC9jMnBhLnNpZ25hdHVyZWppbnN0YW5jZUlEeCx4bXA6aWlkOmQwMTg0NzQ5LWI4MWYtNDdjOC1hZDE1LTljZGZmODhjNzI2N3JjcmVhdGVkX2Fzc2VydGlvbnODomN1cmx4LXNlbGYjanVtYmY9YzJwYS5hc3NlcnRpb25zL2MycGEuaW5ncmVkaWVudC52M2RoYXNoWCCYJB74rVtPllZV1O7iXZ9WLzf4RBA0cNPaleLhqgWEm6JjdXJseCpzZWxmI2p1bWJmPWMycGEuYXNzZXJ0aW9ucy9jMnBhLmFjdGlvbnMudjJkaGFzaFggnItFGDvNLFfaB9Y9Rw+NwOrgVosI4wZOY7+29bASlJuiY3VybHgpc2VsZiNqdW1iZj1jMnBhLmFzc2VydGlvbnMvYzJwYS5oYXNoLmRhdGFkaGFzaFgggZWDQdaW0R/ITZ6xEysfa0yXoAwFrpYb+MO7PKq1hRN0Y2xhaW1fZ2VuZXJhdG9yX2luZm+jZG5hbWVvQW50aHJvcGljIEZpbGVzZ3ZlcnNpb25lMS4wLjBrc3BlY1ZlcnNpb25lMi40LjAAABA4anVtYgAAAChqdW1kYzJjcwARABCAAACqADibcQNjMnBhLnNpZ25hdHVyZQAAABAIY2JvctKEWQISogEmGCFZAgowggIGMIIBjaADAgECAhRA5aAK7sI50L64g/oGQgU9Z1UTADAKBggqhkjOPQQDAzBJMRcwFQYDVQQKEw5BbnRocm9waWMsIFBCQzEuMCwGA1UEAxMlQW50aHJvcGljIENvbnRlbnQgQ3JlZGVudGlhbHMgUm9vdCBDQTAeFw0yNjA4MDcxODQzNTZaFw0yODA4MDYxOTQzNTZaMEQxFzAVBgNVBAoTDkFudGhyb3BpYywgUEJDMSkwJwYDVQQDEyBBbnRocm9waWMgQ2xhdWRlIENvbnRlbnQgU2lnbmluZzBZMBMGByqGSM49AgEGCCqGSM49AwEHA0IABJh6CmvLUBgFFNU0vUKlOVtE6djd17L5SuwX0LemFisBM3dkd/3cyjxFA3Qo5S46fX0/ihY0VZ7mfb9KF703t5OjWDBWMA4GA1UdDwEB/wQEAwIHgDAVBgNVHSUEDjAMBgorBgEEAYPoXgIBMAwGA1UdEwEB/wQCMAAwHwYDVR0jBBgwFoAUzlHiBIFOZFsj+OPEz5o+nMHXXMIwCgYIKoZIzj0EAwMDZwAwZAIwMXMdFJ4BetLLVY7ORuE9noqbbAZOZn/aArXyTwFAZfKrPzxF2vPoJNf1+UCdg1XGAjBwX1zd9WGqYkqmL5SFqw1QySjr1zJfpJM9+1rdDwSPLMOPOjKuiXjoU/pUUeG9RwmhY3BhZFkNngAAAAAAAAAAAAAAAAAAAAAAAAAAAAAAAAAAAAAAAAAAAAAAAAAAAAAAAAAAAAAAAAAAAAAAAAAAAAAAAAAAAAAAAAAAAAAAAAAAAAAAAAAAAAAAAAAAAAAAAAAAAAAAAAAAAAAAAAAAAAAAAAAAAAAAAAAAAAAAAAAAAAAAAAAAAAAAAAAAAAAAAAAAAAAAAAAAAAAAAAAAAAAAAAAAAAAAAAAAAAAAAAAAAAAAAAAAAAAAAAAAAAAAAAAAAAAAAAAAAAAAAAAAAAAAAAAAAAAAAAAAAAAAAAAAAAAAAAAAAAAAAAAAAAAAAAAAAAAAAAAAAAAAAAAAAAAAAAAAAAAAAAAAAAAAAAAAAAAAAAAAAAAAAAAAAAAAAAAAAAAAAAAAAAAAAAAAAAAAAAAAAAAAAAAAAAAAAAAAAAAAAAAAAAAAAAAAAAAAAAAAAAAAAAAAAAAAAAAAAAAAAAAAAAAAAAAAAAAAAAAAAAAAAAAAAAAAAAAAAAAAAAAAAAAAAAAAAAAAAAAAAAAAAAAAAAAAAAAAAAAAAAAAAAAAAAAAAAAAAAAAAAAAAAAAAAAAAAAAAAAAAAAAAAAAAAAAAAAAAAAAAAAAAAAAAAAAAAAAAAAAAAAAAAAAAAAAAAAAAAAAAAAAAAAAAAAAAAAAAAAAAAAAAAAAAAAAAAAAAAAAAAAAAAAAAAAAAAAAAAAAAAAAAAAAAAAAAAAAAAAAAAAAAAAAAAAAAAAAAAAAAAAAAAAAAAAAAAAAAAAAAAAAAAAAAAAAAAAAAAAAAAAAAAAAAAAAAAAAAAAAAAAAAAAAAAAAAAAAAAAAAAAAAAAAAAAAAAAAAAAAAAAAAAAAAAAAAAAAAAAAAAAAAAAAAAAAAAAAAAAAAAAAAAAAAAAAAAAAAAAAAAAAAAAAAAAAAAAAAAAAAAAAAAAAAAAAAAAAAAAAAAAAAAAAAAAAAAAAAAAAAAAAAAAAAAAAAAAAAAAAAAAAAAAAAAAAAAAAAAAAAAAAAAAAAAAAAAAAAAAAAAAAAAAAAAAAAAAAAAAAAAAAAAAAAAAAAAAAAAAAAAAAAAAAAAAAAAAAAAAAAAAAAAAAAAAAAAAAAAAAAAAAAAAAAAAAAAAAAAAAAAAAAAAAAAAAAAAAAAAAAAAAAAAAAAAAAAAAAAAAAAAAAAAAAAAAAAAAAAAAAAAAAAAAAAAAAAAAAAAAAAAAAAAAAAAAAAAAAAAAAAAAAAAAAAAAAAAAAAAAAAAAAAAAAAAAAAAAAAAAAAAAAAAAAAAAAAAAAAAAAAAAAAAAAAAAAAAAAAAAAAAAAAAAAAAAAAAAAAAAAAAAAAAAAAAAAAAAAAAAAAAAAAAAAAAAAAAAAAAAAAAAAAAAAAAAAAAAAAAAAAAAAAAAAAAAAAAAAAAAAAAAAAAAAAAAAAAAAAAAAAAAAAAAAAAAAAAAAAAAAAAAAAAAAAAAAAAAAAAAAAAAAAAAAAAAAAAAAAAAAAAAAAAAAAAAAAAAAAAAAAAAAAAAAAAAAAAAAAAAAAAAAAAAAAAAAAAAAAAAAAAAAAAAAAAAAAAAAAAAAAAAAAAAAAAAAAAAAAAAAAAAAAAAAAAAAAAAAAAAAAAAAAAAAAAAAAAAAAAAAAAAAAAAAAAAAAAAAAAAAAAAAAAAAAAAAAAAAAAAAAAAAAAAAAAAAAAAAAAAAAAAAAAAAAAAAAAAAAAAAAAAAAAAAAAAAAAAAAAAAAAAAAAAAAAAAAAAAAAAAAAAAAAAAAAAAAAAAAAAAAAAAAAAAAAAAAAAAAAAAAAAAAAAAAAAAAAAAAAAAAAAAAAAAAAAAAAAAAAAAAAAAAAAAAAAAAAAAAAAAAAAAAAAAAAAAAAAAAAAAAAAAAAAAAAAAAAAAAAAAAAAAAAAAAAAAAAAAAAAAAAAAAAAAAAAAAAAAAAAAAAAAAAAAAAAAAAAAAAAAAAAAAAAAAAAAAAAAAAAAAAAAAAAAAAAAAAAAAAAAAAAAAAAAAAAAAAAAAAAAAAAAAAAAAAAAAAAAAAAAAAAAAAAAAAAAAAAAAAAAAAAAAAAAAAAAAAAAAAAAAAAAAAAAAAAAAAAAAAAAAAAAAAAAAAAAAAAAAAAAAAAAAAAAAAAAAAAAAAAAAAAAAAAAAAAAAAAAAAAAAAAAAAAAAAAAAAAAAAAAAAAAAAAAAAAAAAAAAAAAAAAAAAAAAAAAAAAAAAAAAAAAAAAAAAAAAAAAAAAAAAAAAAAAAAAAAAAAAAAAAAAAAAAAAAAAAAAAAAAAAAAAAAAAAAAAAAAAAAAAAAAAAAAAAAAAAAAAAAAAAAAAAAAAAAAAAAAAAAAAAAAAAAAAAAAAAAAAAAAAAAAAAAAAAAAAAAAAAAAAAAAAAAAAAAAAAAAAAAAAAAAAAAAAAAAAAAAAAAAAAAAAAAAAAAAAAAAAAAAAAAAAAAAAAAAAAAAAAAAAAAAAAAAAAAAAAAAAAAAAAAAAAAAAAAAAAAAAAAAAAAAAAAAAAAAAAAAAAAAAAAAAAAAAAAAAAAAAAAAAAAAAAAAAAAAAAAAAAAAAAAAAAAAAAAAAAAAAAAAAAAAAAAAAAAAAAAAAAAAAAAAAAAAAAAAAAAAAAAAAAAAAAAAAAAAAAAAAAAAAAAAAAAAAAAAAAAAAAAAAAAAAAAAAAAAAAAAAAAAAAAAAAAAAAAAAAAAAAAAAAAAAAAAAAAAAAAAAAAAAAAAAAAAAAAAAAAAAAAAAAAAAAAAAAAAAAAAAAAAAAAAAAAAAAAAAAAAAAAAAAAAAAAAAAAAAAAAAAAAAAAAAAAAAAAAAAAAAAAAAAAAAAAAAAAAAAAAAAAAAAAAAAAAAAAAAAAAAAAAAAAAAAAAAAAAAAAAAAAAAAAAAAAAAAAAAAAAAAAAAAAAAAAAAAAAAAAAAAAAAAAAAAAAAAAAAAAAAAAAAAAAAAAAAAAAAAAAAAAAAAAAAAAAAAAAAAAAAAAAAAAAAAAAAAAAAAAAAAAAAAAAAAAAAAAAAAAAAAAAAAAAAAAAAAAAAAAAAAAAAAAAAAAAAAAAAAAAAAAAAAAAAAAAAAAAAAAAAAAAAAAAAAAAAAAAAAAAAAAAAAAAAAAAAAAAAAAAAAAAAAAAAAAAAAAAAAAAAAAAAAAAAAAAAAAAAAAAAAAAAAAAAAAAAAAAAAAAAAAAAAAAAAAAAAAAAAAAAAAAAAAAAAAAAAAAAAAAAAAAAAAAAAAAAAAAAAAAAAAAAAAAAAAAAAAAAAAAAAAAAAAAAAAAAAAAAAAAAAAAAAAAAAAAAAAAAAAAAAAAAAAAAAAAAAAAAAAAAAAAAAAAAAAAAAAAAAAAAAAAAAAAAAAAAAAAAAAAAAAAAAAAAAAAAAAAAAAAAAAAAAAAAAAAAAAAAAAAAAAAAAAAAAAAAAAAAAAAAAAAAAAAAAAAAAAAAAAAAAAAAAAAAAAAAAAAAAAAAAAAAAAAAAAAAAAAAAAAAAAAAAAAAAAAAAAAAAAAAAAAAAAAAAAAAAAAAAAAAAAAAAAAAAAAAAAAAAAAAAAAAAAAAAAAAAAAAAAAAAAAAAAAAAAAAAAAAAAAAAAAAAAAAAAAAAAAAAAAAAAAAAAAAAAAAAAAAAAAAAAAAAAAAAAAAAAAAAAAAAAAAAAAAAAAAAAAAAAAAAAAAAAAAAAAAAAAAAAAAAAAAAAAAAAAAAAAAAAAAAAAAAAAAAAAAAAAAAAAAAAAAAAAAAAAAAAAAAAAAAAAAAAAAAAAAAAAAAAAAAAAAAAAAAAAAAAAAAAAAAAAAAAAAAAAAAAAAAAAAAAAAAAAAAAAAAAAAAAAAAAAAAAAAAAAAAAAAAAAAAAAAAAAAAAAAAAAAAAAAAAAAAAAAAAAAAAAAAAAAAAAAAAAAAAAAAAAAAAAAAAAAAAAAAAAAAAAAAAAAAAAAAAAAAAAAAAAAAAAAAAAAAAAAAAAAAAAAAAAAAAAAAAAAAAAAAAAAAAAAAAAAAAAAAAAAAAAAAAAAAAAAAAAAAAAAAAAAAAAAAAAAAAAAAAAAAAAAAAAAAAAAAAAAAAAAAAAAAAAAAAAAAAAAAAAAAAAAAAAAAAAAAAAAAAAAAAAAAAAAAAAAAAAAAAAAAAAAAAAAAAAAAAAAAAAAAAAAAAAAAAAAAAAAAAAAAAAAAAAAAAAAAAAAAAAAAAAAAAAAAAAAAAAAAAAAAAAAAAAAAAAAAAAAAAAAAAAAAAAAAAAAAAAAAAAAAAAAAAAAAAAAAAAAAAAAAAAAAAAAAAAAAAAAAAAAAAAAAAAAAAAAAAAAAAAAAAAAAAAAAAAAAAAAAAAAAAAAAAAAAAAAAAAAAAAAAAAAAAAAAAAAAAAAAAAAAAAAAAAAAAAAAAAAAAAAAAAAAAAAAAAAAAAAAAAAAAAAAAAAAAAAAAAAAAAAAAAAAAAAAAAAAAAAAAAAAAAAAAAAAAAAAAAAAAAAAAAAAAAAAAAAAAAAAAAAAAAAAAAAAAAAAAAAAAAAAAAAAAAAAAAAAAAAAAAAAAAAAAAAAAAAAAAAAAAAAAAAAAAAAAAAAAAAAAAAAAAAAAAAAAAAAAAAAAAAAAAAAAAAAAAAAAAAAAAAAAAAAAAAAAAAAAAAAAAAAAAAAAAAAAAAAAAAAAAAAAAAAAAAAAAAAAAAAAAAAAAAAAAAAAAAAAAAPZYQMkPhchDZpopW6GfNNdRwu3fXoXtMYMO1LSy/I/36Uqlr0uw+ewz/YvGVyxXFk3vc6u8546NaIA3Od8cpr8Z7ro=</c2pa:manifest></metadata>
<rect width="100%" height="100%" fill="#ffffff"/>
<g id="sectors">
<polygon id="sector-10" points="362.0,20.0 360.5,22.5 363.5,75.5 362.0,85.0 364.0,88.5 365.0,105.0 367.0,109.0 366.0,124.5 376.5,286.0 373.0,296.0 374.5,316.0 377.5,322.0 373.5,333.0 376.0,339.0 377.5,354.0 390.5,357.5 482.5,359.0 488.0,354.0 496.0,360.0 650.0,364.0 663.0,360.5 664.5,358.0 664.0,167.5 615.0,85.0 608.0,82.0 513.0,72.5 370.5,19.5" fill="#cfe8ff" stroke="#1f2937" stroke-width="1.6" stroke-linejoin="round"/>
<polygon id="sector-11" points="642.0,113.0 640.0,116.0 641.0,120.0 668.0,164.5 670.5,572.5 675.5,574.5 796.0,552.5 869.5,532.5 872.0,525.5 878.0,523.0 889.5,513.0 890.5,506.5 887.5,503.0 866.0,498.0 861.5,494.0 859.5,489.5 859.0,474.0 861.0,451.5 858.0,427.0 844.5,405.5 833.0,380.5 811.5,365.0 796.5,351.0 787.5,339.5 777.5,331.5 771.0,318.5 762.5,311.0 761.5,307.0 757.5,304.0 752.5,280.0 739.0,245.0 738.5,217.5 746.0,199.0 764.5,167.0 761.0,160.5 759.5,144.5 744.0,140.0 738.5,135.5 725.5,133.0 719.5,126.0 645.5,112.0" fill="#ffe3b8" stroke="#1f2937" stroke-width="1.6" stroke-linejoin="round"/>
<polygon id="sector-12" points="875.0,551.5 867.0,546.5 857.0,546.0 802.5,557.0 677.5,578.5 665.0,584.5 663.5,587.0 664.0,690.0 667.5,697.0 671.5,699.0 691.0,699.5 728.0,692.0 729.5,683.5 722.5,669.0 729.5,661.5 736.5,663.0 755.5,659.0 764.5,661.0 777.0,658.5 785.0,653.5 810.0,649.0 819.0,644.0 826.5,647.0 834.0,642.0 851.0,641.0 868.5,620.5 881.5,588.5 880.5,569.0" fill="#d8f0c8" stroke="#1f2937" stroke-width="1.6" stroke-linejoin="round"/>
<polygon id="sector-1A" points="662.0,585.0 657.0,583.0 518.0,609.5 516.5,612.0 517.5,624.0 513.5,650.0 516.0,659.0 509.5,709.0 513.0,717.5 514.0,727.0 526.5,729.0 657.5,733.5 667.0,732.5 669.5,729.0 670.0,702.5 662.5,689.5" fill="#f6d3e6" stroke="#1f2937" stroke-width="1.6" stroke-linejoin="round"/>
<polygon id="sector-1B" points="511.5,726.5 512.5,718.0 509.0,709.0 515.5,659.0 513.0,652.0 517.0,624.0 514.5,611.0 508.5,610.5 420.5,627.0 408.0,634.5 394.0,637.0 386.5,642.0 386.5,656.5 457.5,725.0 461.5,726.5 508.0,728.0" fill="#e4dcff" stroke="#1f2937" stroke-width="1.6" stroke-linejoin="round"/>
<polygon id="sector-2" points="282.5,601.0 283.5,605.0 330.0,647.5 333.0,648.5 337.5,647.5 340.0,644.5 341.5,634.0 354.5,620.0 367.0,628.5 374.5,625.0 409.0,618.5 418.5,622.0 475.0,611.5 479.0,610.0 480.5,607.5 478.5,602.0 369.5,496.0 366.5,495.0 362.5,496.0 297.5,561.0 296.5,568.5 302.0,576.0" fill="#fff3b0" stroke="#1f2937" stroke-width="1.6" stroke-linejoin="round"/>
<polygon id="sector-3" points="174.5,313.5 108.0,382.5 107.0,389.5 128.5,411.5 187.0,459.5 188.5,462.5 186.5,467.5 190.0,472.0 230.0,504.0 244.0,520.0 289.5,563.0 294.5,563.5 361.0,497.0 362.0,490.0 232.0,363.0 228.0,357.0 207.0,337.5 206.0,333.5 201.5,329.0 196.0,327.5 186.5,318.5 185.0,314.0" fill="#c9f0ea" stroke="#1f2937" stroke-width="1.6" stroke-linejoin="round"/>
<polygon id="sector-3A" points="185.0,307.5 186.0,312.5 190.0,314.5 203.0,327.5 206.5,333.5 226.0,348.0 230.5,344.5 229.0,339.5 230.0,337.5 240.0,337.0 252.0,331.0 321.0,332.5 328.5,330.0 333.0,332.0 370.0,332.0 373.5,330.5 376.5,323.0 374.0,316.0 373.0,298.0 366.5,292.5 334.0,293.5 326.0,296.5 316.0,293.5 267.5,292.5 258.0,296.5 252.5,297.0 246.0,295.0 228.5,278.0 225.5,277.0 211.0,279.5" fill="#fbd0c4" stroke="#1f2937" stroke-width="1.6" stroke-linejoin="round"/>
<polygon id="sector-4" points="51.5,193.0 48.0,198.0 19.0,268.0 20.0,272.0 29.5,283.0 15.0,298.0 14.0,302.0 25.0,314.0 30.0,315.5 65.5,350.0 60.0,358.0 61.0,362.5 71.0,369.5 76.5,368.5 86.0,382.0 90.5,382.5 96.5,380.5 101.0,384.0 105.5,384.0 175.5,312.0 176.5,307.5 59.0,193.0" fill="#e2e8c0" stroke="#1f2937" stroke-width="1.6" stroke-linejoin="round"/>
<polygon id="sector-5" points="97.5,129.0 57.0,181.5 54.5,188.5 177.0,306.5 183.5,307.0 204.5,286.5 212.0,277.0 212.0,269.5 216.5,261.0 217.5,233.5 110.5,129.5" fill="#d6d6ee" stroke="#1f2937" stroke-width="1.6" stroke-linejoin="round"/>
<polygon id="sector-5A" points="275.0,17.5 271.0,26.0 269.5,76.5 273.0,80.5 277.5,82.5 358.0,83.5 361.5,82.0 363.0,75.5 360.0,23.0 358.5,20.5 354.5,19.0 284.0,16.0" fill="#f3d9ff" stroke="#1f2937" stroke-width="1.6" stroke-linejoin="round"/>
<polygon id="sector-6A" points="103.0,120.5 102.0,124.5 103.5,127.0 110.0,128.5 218.0,232.5 217.0,261.5 212.5,269.5 214.0,277.0 220.0,278.0 227.5,276.5 246.0,294.5 252.5,296.5 259.5,295.5 266.5,292.0 316.0,293.0 325.5,295.5 334.0,293.0 364.5,291.5 370.0,293.5 373.5,292.0 375.5,288.0 365.0,116.5 366.5,109.0 364.5,105.0 363.5,88.5 361.5,85.0 358.5,84.0 276.0,83.0 269.0,77.5 270.5,25.0 273.0,21.0 271.5,16.5 267.0,15.5 263.0,17.0 255.5,14.0 250.5,16.5 228.5,16.0 224.5,18.0 221.0,79.5 139.5,78.5" fill="#c8e3d0" stroke="#1f2937" stroke-width="1.6" stroke-linejoin="round"/>
<polygon id="sector-6B" points="241.5,336.5 235.0,344.5 230.0,346.5 230.0,353.5 299.0,420.5 311.0,430.0 315.0,429.0 370.5,371.5 371.5,364.0 376.5,356.5 375.0,336.5 370.0,332.5 332.0,332.5 327.5,330.5 322.0,333.0 252.0,331.5" fill="#ffdcdc" stroke="#1f2937" stroke-width="1.6" stroke-linejoin="round"/>
<polygon id="sector-7" points="338.0,408.0 317.0,429.5 315.5,432.5 316.5,436.5 394.5,512.5 404.0,512.5 427.5,490.0 427.5,480.5 353.5,408.0" fill="#d9ecff" stroke="#1f2937" stroke-width="1.6" stroke-linejoin="round"/>
<polygon id="sector-8A" points="402.0,516.0 403.0,520.5 492.5,607.5 591.0,589.5 594.0,585.5 592.0,578.0 592.5,571.5 595.5,566.0 592.5,558.5 594.0,506.0 584.5,492.5 431.0,489.0 423.0,494.5" fill="#f0e0c8" stroke="#1f2937" stroke-width="1.6" stroke-linejoin="round"/>
<polygon id="sector-8B" points="346.0,401.0 347.5,405.5 353.0,407.0 429.5,482.0 429.5,485.0 432.0,488.0 580.5,491.0 585.5,492.0 590.5,500.5 594.5,502.5 599.5,499.5 605.0,491.5 655.0,492.5 660.5,494.5 665.0,491.0 663.5,485.5 665.0,481.5 664.0,431.5 660.5,430.0 629.5,430.0 606.0,407.5 600.5,404.5 600.5,397.5 594.5,389.0 594.5,366.5 592.0,363.5 494.5,360.5 488.0,356.5 482.0,360.0 390.5,358.0 380.0,356.5 375.0,360.5 378.0,367.0" fill="#d4f1f9" stroke="#1f2937" stroke-width="1.6" stroke-linejoin="round"/>
<polygon id="sector-8C" points="663.0,363.0 660.0,362.0 654.5,364.5 599.5,363.0 596.0,364.5 595.0,389.0 600.5,396.0 601.0,403.0 627.5,428.5 660.5,429.5 664.0,428.0 665.0,376.0 663.5,373.5 664.5,365.5" fill="#f5e6a8" stroke="#1f2937" stroke-width="1.6" stroke-linejoin="round"/>
<polygon id="sector-9" points="604.0,493.0 594.5,506.5 593.0,558.0 596.0,566.0 593.0,571.5 592.5,578.0 595.5,587.0 600.0,588.5 662.0,576.5 664.5,573.0 664.0,496.5 654.0,493.0" fill="#e8d0d0" stroke="#1f2937" stroke-width="1.6" stroke-linejoin="round"/>
</g>
<g id="labels" font-family="Arial, Helvetica, sans-serif" font-weight="700" fill="#111827">
<text x="520.5" y="217.0" font-size="15.0" text-anchor="middle" dominant-baseline="central">Sector 10</text>
<text x="765.0" y="460.0" font-size="15.0" text-anchor="middle" dominant-baseline="central">Sector 11</text>
<text x="760.5" y="612.0" font-size="14.6" text-anchor="middle" dominant-baseline="central">Sector 12</text>
<text x="594.5" y="663.0" font-size="15.0" text-anchor="middle" dominant-baseline="central">Sector 1A</text>
<text x="466.5" y="666.5" font-size="14.6" text-anchor="middle" dominant-baseline="central">Sector 1B</text>
<text x="366.5" y="568.5" font-size="15.0" text-anchor="middle" dominant-baseline="central">Sector 2</text>
<text x="179.5" y="384.5" font-size="15.0" text-anchor="middle" dominant-baseline="central">Sector 3</text>
<text x="224.0" y="311.0" font-size="8.2" text-anchor="middle" dominant-baseline="central">Sector 3A</text>
<text x="82.0" y="290.0" font-size="15.0" text-anchor="middle" dominant-baseline="central">Sector 4</text>
<text x="154.5" y="228.0" font-size="13.9" text-anchor="middle" dominant-baseline="central">Sector 5</text>
<text x="303.5" y="50.0" font-size="10.2" text-anchor="middle" dominant-baseline="central">Sector 5A</text>
<text x="281.0" y="170.5" font-size="15.0" text-anchor="middle" dominant-baseline="central">Sector 6A</text>
<text x="310.5" y="373.5" font-size="12.6" text-anchor="middle" dominant-baseline="central">Sector 6B</text>
<text x="346.0" y="433.0" font-size="7.9" text-anchor="middle" dominant-baseline="central">Sector 7</text>
<text x="513.0" y="547.0" font-size="15.0" text-anchor="middle" dominant-baseline="central">Sector 8A</text>
<text x="487.0" y="424.0" font-size="15.0" text-anchor="middle" dominant-baseline="central">Sector 8B</text>
<text x="635.0" y="393.5" font-size="9.1" text-anchor="middle" dominant-baseline="central">Sector 8C</text>
<text x="629.5" y="528.5" font-size="12.3" text-anchor="middle" dominant-baseline="central">Sector 9</text>
</g>
</svg>